<?xml version="1.0" standalone="no"?>
<!DOCTYPE svg PUBLIC "-//W3C//DTD SVG 20010904//EN"
 "http://www.w3.org/TR/2001/REC-SVG-20010904/DTD/svg10.dtd">
<svg version="1.0" xmlns="http://www.w3.org/2000/svg"
 width="1000.000000pt" height="1000.000000pt" viewBox="0 0 1000.000000 1000.000000"
 preserveAspectRatio="xMidYMid meet">
<metadata>
Created by potrace 1.14, written by Peter Selinger 2001-2017
</metadata>
<g transform="translate(0.000000,1000.000000) scale(0.100000,-0.100000)"
fill="#000000" stroke="none">
<path d="M4728 9905 c-2 -2 -43 -6 -93 -10 -49 -4 -108 -9 -130 -12 -22 -2
-57 -5 -77 -6 -21 -1 -38 -4 -38 -8 0 -3 -18 -5 -40 -3 -22 1 -40 -1 -40 -6 0
-4 -10 -8 -22 -8 -27 0 -102 -9 -138 -16 -46 -10 -74 -16 -160 -32 -47 -9 -89
-19 -95 -23 -9 -7 -30 -10 -77 -14 -10 -1 -18 -6 -18 -11 0 -5 -3 -7 -6 -4 -3
4 -20 2 -37 -3 -18 -6 -43 -12 -56 -15 -13 -3 -34 -10 -45 -16 -12 -6 -21 -10
-21 -9 0 10 -325 -97 -418 -138 -26 -11 -49 -20 -52 -21 -3 0 -21 -7 -41 -15
-20 -8 -40 -15 -45 -15 -5 0 -9 -4 -9 -8 0 -5 -6 -9 -12 -9 -7 0 -44 -15 -83
-34 -38 -18 -72 -34 -75 -35 -3 -1 -15 -5 -27 -9 -13 -4 -23 -11 -23 -16 0 -5
-3 -8 -7 -7 -8 2 -64 -23 -73 -32 -3 -3 -23 -13 -45 -23 -22 -10 -51 -26 -65
-35 -14 -9 -27 -17 -30 -17 -11 -1 -175 -99 -178 -107 -2 -4 -8 -6 -13 -2 -5
3 -9 1 -9 -4 0 -5 -13 -15 -30 -22 -16 -7 -30 -16 -30 -20 0 -4 -8 -10 -17
-14 -18 -5 -53 -26 -63 -36 -3 -3 -32 -23 -65 -45 -33 -22 -62 -42 -65 -45 -3
-3 -22 -16 -42 -30 -21 -14 -38 -28 -38 -32 0 -5 -5 -8 -10 -8 -12 0 -223
-168 -228 -182 -2 -4 -8 -8 -13 -8 -5 0 -25 -15 -43 -32 -18 -18 -67 -63 -108
-101 -161 -144 -329 -323 -486 -517 -47 -58 -89 -106 -94 -108 -4 -2 -8 -8 -8
-13 0 -5 -20 -35 -43 -66 -61 -81 -166 -236 -213 -313 -21 -36 -41 -67 -44
-70 -3 -3 -16 -25 -29 -50 -14 -25 -29 -48 -35 -52 -6 -4 -7 -8 -3 -8 5 0 -1
-13 -12 -29 -12 -16 -21 -33 -21 -38 0 -5 -7 -19 -17 -32 -36 -52 -213 -432
-215 -461 0 -3 -5 -14 -11 -25 -6 -11 -10 -23 -9 -27 1 -5 -3 -8 -8 -8 -6 0
-10 -6 -9 -12 1 -7 -4 -26 -11 -43 -7 -16 -14 -34 -16 -40 -1 -5 -18 -54 -37
-107 -20 -54 -34 -98 -31 -98 2 0 -2 -13 -11 -30 -8 -16 -14 -33 -13 -37 0 -4
-4 -21 -10 -36 -7 -16 -12 -33 -12 -39 0 -5 -9 -40 -20 -76 -11 -37 -22 -78
-24 -92 -3 -14 -5 -25 -6 -25 -2 0 -7 -21 -14 -57 -4 -16 -8 -38 -11 -50 -10
-48 -33 -164 -38 -193 -3 -16 -9 -43 -12 -60 -4 -16 -8 -48 -10 -70 -2 -22 -4
-40 -5 -40 -1 0 -3 -13 -5 -30 -3 -39 -15 -133 -20 -165 -20 -133 -27 -699
-11 -880 5 -52 9 -110 10 -127 0 -18 3 -33 6 -33 3 0 6 -17 7 -37 2 -69 8
-123 13 -123 3 0 6 -18 7 -40 2 -22 5 -52 8 -68 3 -15 10 -49 15 -77 12 -67
18 -96 36 -180 21 -95 22 -100 24 -100 1 0 3 -9 5 -20 4 -22 7 -35 30 -115 9
-30 18 -62 20 -70 2 -8 4 -17 5 -20 1 -3 2 -9 1 -13 -1 -5 4 -5 10 -2 7 5 7
11 1 17 -7 7 -7 19 -2 34 5 13 5 26 0 29 -9 6 -7 786 3 822 3 13 1 23 -4 23
-6 0 -7 6 -2 13 4 6 8 19 10 27 5 40 14 109 17 145 2 22 5 40 6 40 1 0 3 11 5
25 1 14 5 39 9 55 11 56 18 90 20 102 1 7 5 15 8 19 4 3 4 12 1 20 -3 8 -1 14
4 14 5 0 10 8 11 18 2 20 10 56 12 60 2 1 4 7 5 12 1 6 4 12 5 15 1 3 3 8 5
13 3 11 14 39 51 127 19 45 34 86 34 93 0 7 5 12 10 12 6 0 10 9 10 20 0 11 5
20 10 20 6 0 10 7 10 16 0 9 9 27 20 41 11 14 20 34 20 44 0 9 3 19 8 21 4 2
22 32 41 68 58 111 187 333 261 450 38 61 70 113 70 116 0 3 11 20 25 38 14
18 25 36 25 40 0 4 5 12 10 19 6 7 44 64 85 127 40 63 78 120 84 127 6 7 11
17 11 22 0 6 6 14 13 18 6 4 21 24 31 43 11 19 24 40 28 45 25 30 88 127 88
135 0 6 3 10 8 10 4 0 16 16 26 35 11 19 23 35 28 35 5 0 7 4 4 9 -4 5 -3 11
2 13 4 1 34 41 67 88 33 47 63 87 67 88 4 2 8 9 8 15 0 7 10 24 23 38 12 14
27 32 32 41 35 54 70 104 79 115 18 20 29 35 70 92 21 30 42 59 47 65 5 6 23
29 39 51 45 59 64 84 75 98 6 6 33 41 60 77 28 36 53 67 56 70 3 3 34 41 69
85 34 44 66 82 69 85 4 3 17 19 30 35 23 30 96 113 201 228 69 76 276 282 324
322 20 17 48 40 62 53 47 41 224 172 224 165 0 -4 10 3 23 14 26 24 69 48 80
45 4 -1 7 2 7 7 0 5 14 14 30 21 17 7 30 15 30 19 0 4 10 7 22 8 11 1 24 6 27
11 11 16 234 100 286 107 11 2 40 8 64 13 25 6 49 9 53 6 4 -3 8 -1 8 3 0 5
29 8 65 8 36 -1 65 2 65 6 0 3 19 3 43 0 23 -3 68 -6 100 -6 31 0 57 -2 57 -5
0 -3 19 -6 43 -6 23 -1 58 -4 77 -8 19 -4 42 -9 50 -10 8 -1 40 -9 70 -16 30
-8 58 -13 63 -12 4 1 7 -3 7 -8 0 -6 7 -10 16 -10 24 0 174 -75 209 -104 17
-14 35 -29 40 -34 66 -55 158 -245 132 -271 -8 -8 -8 -11 0 -11 16 0 14 -131
-4 -199 -17 -63 -76 -188 -122 -256 -17 -25 -31 -50 -31 -56 0 -5 -3 -9 -7 -9
-5 0 -19 -16 -33 -36 -13 -20 -36 -49 -50 -65 -14 -16 -43 -50 -65 -76 -22
-25 -50 -57 -62 -70 -13 -13 -23 -26 -23 -28 0 -2 -21 -26 -47 -53 -27 -28
-79 -85 -118 -128 -38 -42 -80 -87 -92 -100 -13 -13 -23 -26 -23 -29 0 -3 -15
-20 -32 -38 -18 -18 -62 -66 -98 -107 -36 -41 -69 -80 -75 -86 -39 -43 -142
-161 -198 -228 -23 -28 -51 -60 -62 -72 -21 -22 -92 -107 -160 -189 -13 -16
-34 -41 -46 -55 -12 -14 -38 -45 -58 -70 -20 -25 -38 -47 -41 -50 -3 -3 -25
-30 -50 -60 -25 -30 -48 -56 -52 -58 -5 -2 -8 -8 -8 -12 0 -5 -10 -20 -22 -34
-13 -13 -28 -30 -33 -38 -11 -14 -72 -92 -95 -122 -8 -10 -23 -27 -32 -38 -10
-10 -15 -18 -12 -18 3 0 -1 -6 -8 -13 -7 -8 -26 -31 -43 -52 -16 -21 -40 -50
-52 -66 -13 -15 -23 -31 -23 -36 0 -5 -9 -15 -20 -23 -11 -8 -20 -18 -20 -23
0 -4 -17 -29 -37 -56 -21 -26 -45 -58 -53 -71 -8 -12 -19 -28 -25 -34 -5 -6
-23 -31 -40 -56 -16 -25 -32 -47 -35 -50 -3 -3 -18 -25 -34 -49 -16 -25 -33
-50 -37 -55 -37 -45 -190 -293 -254 -411 -20 -38 -43 -76 -49 -84 -6 -8 -11
-17 -10 -20 1 -3 -14 -39 -33 -80 -42 -91 -91 -233 -100 -292 -3 -24 -6 -78
-6 -119 0 -152 24 -230 93 -299 31 -31 49 -41 87 -46 27 -4 53 -8 58 -9 34
-10 171 74 268 163 116 106 307 307 307 323 0 5 5 6 10 3 6 -3 10 -3 10 2 0 4
20 30 43 56 24 26 64 71 88 99 24 29 55 64 68 78 13 14 44 49 70 79 25 30 61
70 80 90 18 20 49 55 68 78 19 23 49 57 65 75 16 18 46 52 66 76 20 24 53 61
72 82 19 22 53 60 75 86 22 25 54 62 72 80 17 19 30 34 28 34 -3 0 8 13 23 29
15 15 52 57 82 92 30 35 72 82 93 105 20 23 37 46 37 53 0 6 6 11 13 11 6 0
22 15 35 33 12 17 38 50 58 72 20 22 63 71 97 110 34 38 83 92 109 120 25 27
56 61 68 75 24 28 211 229 280 301 265 277 804 805 1017 995 37 34 84 77 104
95 19 19 69 63 109 99 40 36 88 79 106 95 18 17 54 48 80 70 27 22 55 48 63
58 9 9 19 17 23 17 4 0 18 10 31 23 38 35 66 58 157 133 47 38 90 73 96 79 7
5 29 24 50 40 21 17 54 45 75 63 20 17 39 32 43 32 6 0 50 37 88 73 10 9 20
17 23 17 6 0 13 6 58 45 15 14 31 25 35 25 4 0 23 14 42 30 54 47 60 51 60 43
0 -4 4 -3 8 3 4 6 39 35 77 65 39 29 73 57 77 63 4 6 8 8 8 4 0 -5 9 0 19 10
10 9 35 28 55 42 20 14 45 32 55 40 11 8 29 22 41 30 12 8 48 34 79 56 90 65
207 147 313 220 l98 66 -35 24 c-20 13 -40 24 -45 24 -6 0 -10 5 -10 10 0 6
-5 10 -10 10 -6 0 -34 15 -63 33 -102 66 -353 197 -361 189 -3 -3 -6 0 -6 6 0
7 -4 12 -10 12 -5 0 -42 15 -82 34 -97 45 -151 68 -164 71 -6 2 -27 10 -47 20
-19 9 -41 18 -49 19 -13 3 -22 6 -102 40 -21 9 -47 16 -57 16 -11 0 -19 5 -19
12 0 6 -2 9 -6 6 -3 -3 -27 3 -55 13 -27 10 -49 16 -49 13 0 -4 -6 -1 -14 5
-7 6 -25 12 -40 13 -14 1 -26 5 -26 9 0 3 -27 12 -60 19 -33 7 -63 17 -66 22
-3 4 -9 6 -14 3 -5 -3 -21 0 -37 6 -15 7 -39 13 -53 15 -14 2 -36 6 -50 10
-32 9 -105 25 -224 49 -10 3 -38 7 -63 10 -24 2 -48 7 -51 9 -4 2 -29 6 -57
10 -27 3 -63 8 -80 12 -31 6 -83 11 -180 19 -33 3 -85 8 -115 11 -54 7 -646
14 -652 9z"/>
<path d="M9224 7383 c-57 -68 -54 -64 -124 -143 -30 -34 -75 -84 -100 -110
-25 -26 -64 -70 -87 -96 -23 -27 -57 -65 -75 -86 -31 -34 -121 -136 -161 -182
-10 -12 -28 -32 -40 -46 -23 -27 -74 -86 -140 -164 -23 -27 -54 -63 -70 -80
-15 -17 -30 -35 -35 -41 -13 -18 -96 -119 -119 -145 -21 -23 -70 -83 -163
-200 -19 -24 -42 -51 -50 -60 -8 -9 -35 -43 -59 -75 -25 -33 -47 -62 -50 -65
-3 -3 -22 -25 -41 -50 -19 -25 -38 -46 -42 -48 -4 -2 -8 -8 -8 -14 0 -6 -14
-27 -30 -47 -44 -52 -48 -57 -73 -93 -12 -19 -28 -40 -35 -48 -7 -8 -37 -49
-67 -90 -30 -41 -62 -84 -71 -95 -8 -11 -23 -32 -32 -47 -9 -16 -20 -28 -24
-28 -4 0 -8 -4 -8 -10 0 -9 -58 -99 -71 -110 -3 -3 -14 -20 -24 -37 -11 -18
-22 -33 -26 -33 -4 0 -9 -8 -13 -17 -5 -18 -26 -53 -36 -63 -11 -11 -50 -70
-50 -75 0 -4 -10 -21 -23 -38 -12 -18 -27 -41 -34 -52 -7 -11 -30 -50 -52 -87
-23 -36 -41 -71 -41 -77 0 -6 -4 -11 -9 -11 -5 0 -11 -8 -14 -17 -4 -10 -17
-36 -30 -58 -56 -96 -107 -195 -100 -195 5 0 3 -4 -2 -8 -9 -6 -59 -100 -60
-112 0 -3 -8 -23 -18 -45 -10 -22 -25 -53 -32 -70 -8 -16 -11 -33 -9 -37 3 -4
1 -8 -4 -8 -5 0 -12 -8 -15 -17 -2 -10 -21 -71 -41 -135 -40 -131 -45 -153
-53 -218 -8 -66 -8 -299 1 -340 12 -59 29 -114 38 -125 4 -5 8 -17 8 -27 0
-10 5 -18 10 -18 6 0 10 -7 10 -15 0 -8 5 -15 10 -15 6 0 10 -5 10 -11 0 -6
18 -27 40 -47 60 -56 68 -62 82 -62 8 0 24 -7 36 -16 12 -8 22 -13 22 -10 0 3
17 -1 38 -8 47 -16 239 -12 312 7 50 13 110 30 145 42 99 35 128 47 206 84 46
22 88 40 93 39 5 0 12 4 15 9 3 5 42 29 86 52 44 24 87 49 95 56 8 7 35 23 60
36 25 13 49 30 53 37 4 6 14 12 22 12 7 0 15 3 17 8 2 4 28 23 58 42 30 19 57
37 60 40 3 4 20 15 38 25 17 11 32 23 32 27 0 4 4 8 10 8 12 0 118 74 160 112
10 9 21 14 24 10 3 -3 6 0 6 6 0 7 6 12 14 12 8 0 16 7 20 15 3 8 12 15 20 15
8 0 16 4 18 8 2 4 25 23 53 42 27 19 56 41 64 48 7 7 26 21 40 30 14 9 31 20
36 25 25 19 86 64 111 82 15 11 40 30 55 42 15 13 32 23 39 23 6 0 8 4 5 10
-3 6 -1 10 5 10 10 0 101 66 146 105 7 6 24 19 40 30 74 53 299 230 302 237 2
4 10 8 17 8 7 0 15 3 17 8 3 7 248 202 291 232 12 8 35 26 50 39 l27 24 -1
226 c-1 135 -5 231 -11 239 -7 8 -7 12 1 12 7 0 10 4 6 10 -3 5 -8 46 -11 92
-3 46 -7 97 -10 113 -2 17 -6 55 -9 85 -2 30 -7 66 -10 80 -3 14 -8 39 -10 55
-14 111 -16 124 -46 270 -6 28 -12 61 -15 75 -3 14 -7 33 -10 42 -3 10 -7 30
-10 45 -3 16 -9 42 -14 58 -5 17 -14 50 -21 75 -6 25 -14 52 -17 60 -3 8 -7
24 -9 35 -2 11 -7 31 -13 45 -5 14 -10 34 -12 45 -2 11 -9 26 -16 33 -7 8 -10
18 -7 23 4 5 3 15 -2 22 -4 6 -8 14 -8 17 0 3 -5 19 -12 35 -31 80 -75 201
-77 210 -1 6 -12 31 -24 57 -12 26 -22 49 -22 52 0 22 -222 466 -251 502 -5 6
-6 14 -2 17 3 4 2 7 -4 7 -6 0 -32 -26 -59 -57z"/>
<path d="M6800 6642 c0 -5 -33 -26 -72 -47 -40 -21 -75 -40 -78 -44 -3 -3 -26
-17 -52 -31 -27 -13 -48 -28 -48 -32 0 -5 -7 -8 -15 -8 -8 0 -15 -4 -15 -10 0
-5 -4 -10 -10 -10 -7 0 -100 -59 -145 -92 -28 -21 -116 -85 -136 -98 -12 -8
-31 -23 -43 -32 -11 -10 -39 -32 -61 -48 -75 -58 -120 -94 -245 -197 -41 -34
-95 -80 -116 -101 -13 -13 -24 -21 -24 -19 0 3 -17 -12 -39 -32 -21 -20 -70
-64 -107 -98 -265 -236 -937 -896 -1175 -1153 -59 -63 -123 -133 -143 -154
-20 -21 -36 -43 -36 -48 0 -5 -4 -6 -10 -3 -6 3 -10 3 -10 -2 0 -4 -16 -26
-35 -47 -19 -22 -35 -44 -35 -48 0 -5 -4 -6 -10 -3 -5 3 -10 3 -10 -2 0 -7
-23 -37 -68 -88 -10 -11 -40 -47 -67 -80 -28 -33 -54 -65 -60 -71 -5 -6 -28
-33 -50 -59 -22 -27 -55 -65 -72 -85 -18 -21 -33 -42 -33 -48 0 -6 -4 -12 -9
-14 -8 -2 -194 -235 -275 -341 -11 -16 -28 -36 -36 -45 -9 -10 -36 -44 -60
-77 -43 -57 -57 -74 -90 -115 -8 -10 -22 -28 -30 -40 -8 -12 -19 -28 -25 -34
-5 -6 -23 -29 -40 -51 -16 -22 -34 -45 -40 -52 -20 -24 -46 -58 -97 -128 -4
-5 -18 -23 -31 -40 -13 -16 -66 -86 -118 -155 -51 -69 -97 -126 -101 -128 -5
-2 -8 -8 -8 -13 0 -10 -101 -142 -112 -147 -5 -2 -8 -8 -8 -14 0 -10 -64 -94
-85 -113 -7 -5 -13 -13 -13 -18 -3 -13 -106 -147 -114 -147 -5 0 -8 -7 -8 -15
0 -7 -6 -18 -13 -22 -6 -4 -32 -35 -56 -68 -25 -33 -47 -62 -50 -65 -14 -12
-91 -109 -91 -115 0 -3 -14 -19 -30 -35 -17 -16 -30 -33 -30 -37 0 -4 -17 -26
-38 -49 -20 -22 -50 -57 -67 -78 -70 -89 -315 -338 -315 -320 0 2 -8 -4 -19
-15 -10 -10 -25 -21 -32 -24 -15 -5 29 -53 116 -122 28 -22 52 -43 55 -46 19
-21 279 -212 390 -285 199 -132 502 -304 535 -304 8 0 15 -4 15 -9 0 -8 56
-33 64 -28 2 1 13 -7 25 -17 12 -11 21 -16 21 -13 0 5 93 -36 142 -63 10 -6
23 -10 31 -10 7 0 29 -9 50 -20 20 -11 38 -20 39 -19 6 1 208 -71 231 -82 10
-6 22 -7 27 -4 6 4 10 1 10 -6 0 -7 3 -10 6 -7 3 4 21 0 40 -8 19 -8 35 -14
36 -13 2 0 10 -2 18 -4 22 -7 101 -28 119 -33 17 -3 156 -40 169 -44 4 -2 12
-4 17 -5 10 -3 101 -21 145 -29 14 -3 50 -10 80 -16 53 -10 91 -17 155 -25 17
-2 30 -5 30 -6 0 -2 14 -4 105 -13 36 -4 79 -9 95 -11 199 -26 848 -26 1015 0
14 2 52 7 85 10 33 4 74 9 90 11 76 11 93 14 130 21 22 3 50 7 63 7 12 1 22 3
22 6 0 3 8 6 18 7 30 2 86 12 120 22 18 5 35 10 37 10 3 1 6 1 8 2 4 1 40 8
67 13 14 2 25 5 25 6 0 2 19 7 70 19 22 5 74 19 115 31 41 13 82 24 90 25 17
3 42 12 87 31 17 8 36 14 42 14 8 0 145 48 221 77 8 4 18 5 23 5 4 -1 7 3 7 8
0 5 3 9 8 8 8 -1 51 15 96 38 16 8 35 14 43 14 7 0 13 5 13 12 0 6 3 9 6 6 6
-6 175 69 184 82 3 4 17 10 32 13 15 4 33 14 42 22 8 8 19 15 25 15 10 0 130
67 266 148 75 45 298 191 305 201 3 3 31 24 62 45 32 21 65 46 75 55 10 9 39
32 63 51 25 19 47 38 48 42 2 4 8 8 13 8 6 0 20 10 33 22 13 13 45 41 71 63
160 133 428 407 565 575 25 30 47 57 50 60 5 4 54 67 82 105 4 6 25 33 46 60
74 97 269 396 310 475 7 14 31 57 52 95 97 172 236 476 297 650 13 39 27 77
30 85 4 8 7 17 7 20 1 3 5 11 9 18 5 6 6 12 3 12 -3 0 3 20 14 45 11 25 17 45
15 45 -2 0 5 25 15 55 10 30 16 55 13 55 -3 0 0 6 6 14 6 7 12 25 13 40 1 14
5 26 9 26 3 0 6 7 6 15 0 8 -3 15 -6 15 -4 0 -74 -66 -158 -147 -158 -155
-477 -463 -567 -548 -29 -27 -124 -118 -212 -202 -87 -83 -175 -166 -195 -185
-73 -66 -232 -214 -295 -275 -35 -34 -64 -59 -64 -57 0 2 -19 -16 -43 -41 -24
-25 -46 -45 -49 -45 -3 0 -26 -19 -50 -43 -24 -23 -79 -73 -122 -112 -43 -38
-88 -79 -100 -90 -12 -11 -51 -45 -85 -75 -35 -30 -68 -60 -75 -65 -6 -6 -42
-37 -81 -70 -38 -33 -76 -67 -85 -75 -36 -34 -299 -254 -364 -305 -21 -16 -44
-35 -51 -42 -7 -7 -15 -9 -19 -6 -3 4 -6 -1 -6 -10 0 -10 -4 -17 -10 -17 -10
0 -37 -20 -72 -52 -10 -10 -22 -18 -26 -18 -5 0 -19 -10 -32 -22 -59 -55 -316
-227 -470 -315 -180 -103 -217 -122 -224 -116 -3 4 -6 1 -6 -5 0 -7 -9 -12
-20 -12 -11 0 -20 -5 -20 -11 0 -5 -4 -7 -10 -4 -5 3 -10 1 -10 -5 0 -6 -5 -8
-11 -4 -6 3 -14 1 -18 -5 -4 -6 -16 -13 -27 -15 -10 -3 -36 -11 -56 -20 -71
-30 -243 -77 -290 -79 -16 0 -28 -4 -28 -8 0 -3 -15 -6 -32 -6 -18 0 -73 -1
-123 -2 -80 -2 -182 4 -225 13 -177 36 -303 90 -414 176 -43 34 -172 170 -161
170 3 0 -2 9 -12 19 -10 11 -31 46 -48 78 -16 32 -33 60 -36 63 -7 6 -29 71
-28 84 0 5 -3 12 -8 15 -10 7 -53 147 -53 174 0 9 -4 17 -8 17 -4 0 -8 8 -9
18 -1 25 -11 97 -14 97 -1 0 -3 16 -4 36 -1 19 -5 40 -8 46 -4 6 -4 18 -1 26
3 8 1 18 -5 21 -6 4 -6 18 -1 36 5 16 5 32 1 34 -10 7 -14 84 -12 251 2 188 5
265 11 265 3 0 5 12 4 27 0 15 3 45 7 67 4 23 10 59 13 81 6 38 12 68 21 105
2 8 4 23 4 33 1 10 5 16 10 13 5 -4 7 3 4 14 -3 11 -2 28 2 37 5 10 7 24 6 31
-1 6 2 12 6 12 5 0 9 8 10 18 2 25 7 45 16 60 5 6 6 12 3 12 -3 0 0 17 8 38 8
20 17 46 22 57 4 11 9 29 11 39 2 11 8 25 14 33 6 7 9 13 6 13 -3 0 5 25 18
55 14 30 25 58 26 63 3 13 12 37 32 82 12 25 22 51 23 59 2 8 9 18 16 22 7 5
10 9 6 9 -4 0 4 26 18 58 33 75 176 366 184 372 3 3 19 32 35 65 16 33 33 62
37 63 5 2 6 8 2 13 -3 5 0 9 6 9 6 0 8 5 5 10 -3 6 -1 10 5 10 6 0 8 5 5 10
-3 6 -3 10 2 10 4 0 13 10 18 23 17 35 69 131 75 137 3 3 14 23 25 45 11 22
30 57 43 78 12 20 37 65 55 98 17 34 37 68 42 77 6 10 30 53 54 97 24 44 53
92 63 108 11 15 16 27 11 27 -4 0 -3 4 3 8 9 6 36 51 94 154 85 153 114 204
119 208 4 3 15 23 26 45 11 22 23 42 26 45 4 3 19 30 35 60 15 30 31 57 34 60
6 5 82 136 89 155 2 6 7 12 10 15 3 3 19 30 35 60 16 30 32 57 36 60 3 3 15
22 26 43 36 73 39 77 47 77 4 0 5 5 2 10 -3 6 -1 10 4 10 6 0 11 7 11 15 0 8
3 15 8 15 4 0 16 20 27 45 11 25 23 45 26 45 4 0 9 8 13 18 3 9 11 26 18 37
41 62 79 127 81 138 1 7 5 14 8 17 11 9 129 211 129 221 0 5 5 9 10 9 6 0 10
7 10 15 0 8 5 15 10 15 6 0 10 6 10 13 0 6 18 40 40 75 22 34 40 67 40 72 0 6
4 10 10 10 6 0 9 3 8 8 -2 11 24 62 33 62 4 0 11 9 14 21 4 11 29 55 56 97 72
113 80 130 69 137 -6 3 -10 2 -10 -3z"/>
</g>
</svg>
